<?xml version="1.0" encoding="utf-8"?>
<!-- Generator: Adobe Illustrator 25.0.1, SVG Export Plug-In . SVG Version: 6.00 Build 0)  -->
<svg version="1.1" id="layer_1" xmlns="http://www.w3.org/2000/svg" xmlns:xlink="http://www.w3.org/1999/xlink" x="0px" y="0px"
	 viewBox="0 0 684.9 130" style="enable-background:new 0 0 684.9 130;" xml:space="preserve">
<style type="text/css">
	.st0{fill:#270645;}
	.st1{fill:url(#Shape_1_);}
	.st2{clip-path:url(#SVGID_2_);}
	.st3{fill:url(#SVGID_3_);}
	.st4{clip-path:url(#SVGID_5_);}
	.st5{fill:url(#SVGID_6_);}
	.st6{fill:url(#shadow_1_);}
	.st7{clip-path:url(#SVGID_8_);}
	.st8{fill:url(#SVGID_9_);}
	.st9{fill:url(#SVGID_10_);}
	.st10{fill:url(#SVGID_11_);}
	.st11{clip-path:url(#SVGID_13_);}
	.st12{fill:url(#SVGID_14_);}
	.st13{fill:#270645;stroke:#270645;stroke-miterlimit:10;}
</style>
<path class="st0" d="M206,73c0,4.2-3.2,7.4-7.4,7.4l0,0h-14.2c-3.9,0-7.4-3.2-7.4-7.4V37.2h-13.9V73c0,11.6,9.4,21.3,21.6,21.3h14.2
	c11.6,0,21.6-9.4,21.6-21.6V37.2h-14.2V73H206z"/>
<path class="st0" d="M365.5,58.1v14.2c0,11.6,9.4,21.3,21.6,21.3h28.4V79.4h-28.4c-3.9,0-7.4-3.2-7.4-7.4V57.8
	c0-3.9,3.2-7.4,7.4-7.4h28.4V36.8h-28.4C375.1,37.2,365.5,46.5,365.5,58.1z"/>
<path class="st0" d="M265.4,37.2h-14.2c-11.6,0-21.6,9.4-21.6,21.6v50h14.2V94.3h21.6c11.6,0,21.6-9.4,21.6-21.6V58.5
	C287,46.5,277,37.2,265.4,37.2z M272.8,73c0,3.9-3.2,7.4-7.4,7.4l0,0h-21.6V58.8c0-3.9,3.2-7.4,7.1-7.4h14.2c3.9,0,7.4,3.2,7.4,7.4
	l0,0L272.8,73z"/>
<path class="st0" d="M310.6,22.6h-14.2v50c0,11.6,9.7,21.3,21.6,21.3h14.2V79.8H318c-3.9,0-7.4-3.2-7.4-7.4l0,0V50.7h21.6V37.2
	h-21.6V22.6z"/>
<rect x="341.6" y="37.2" class="st0" width="14.2" height="57.1"/>
<path class="st0" d="M482,37.2h-14.2v7.4c0,3.9-3.2,7.4-7.4,7.1h-21.6V37.5h-14.2v56.8h14.2V65.9h21c4.2,0,7.7,3.6,7.7,7.7v21h14.2
	v-21c0-5.5-1.9-10.3-5.8-14.5c3.6-3.9,5.8-9,5.8-14.5L482,37.2L482,37.2z"/>
<linearGradient id="Shape_1_" gradientUnits="userSpaceOnUse" x1="2.7" y1="1040.5117" x2="118.4287" y2="1040.5117" gradientTransform="matrix(1 0 0 1 0 -974.9449)">
	<stop  offset="0" style="stop-color:#0028C6"/>
	<stop  offset="1" style="stop-color:#1D42FF"/>
</linearGradient>
<path id="Shape" class="st1" d="M83.7,5.5L49.5,25.2c-0.3,0.3-0.6,0.6-0.6,1.3v71.3c0,2.6-2.3,4.8-4.8,4.8c-1,0-1.6-0.3-2.3-0.6
	l-4.5-2.9c-7.4-4.2-11.6-11.6-11.6-20V39.7c0.3-0.3,0-0.3,0-0.3h-0.3L3.3,52c-0.3,0-0.6,0.6-0.6,1v25.8c0,16.5,8.7,32,23.2,40
	l11.6,6.8c11,6.5,25.2,2.9,31.6-8.1c2.3-3.6,3.2-7.7,3.2-11.6V92.7l23.2-13.2c14.2-8.1,23.2-23.2,23.2-40v-14
	c0-12.6-10.3-23.2-23.2-23.2C91.1,2.3,87.2,3.3,83.7,5.5z M83.7,58.8l-11.6,6.8V39.1l16.1-9.4c2.3-1.3,5.2-0.6,6.5,1.6
	c0.3,0.6,0.6,1.6,0.6,2.3v5.5C95.3,46.8,90.8,54.9,83.7,58.8L83.7,58.8z"/>
<g id="Effects">
	<g id="_1">
		<g>
			<g>
				<g>
					<g>
						<g>
							<g>
								<defs>
									<path id="SVGID_1_" d="M36.2,125l-10.3-6.1c-14.2-8.1-23.2-23.6-23.2-40V52.7c0-0.3,0-0.3,0.3-0.3l22.9-13.2V106
										C25.9,113.7,29.8,120.8,36.2,125z"/>
								</defs>
								<clipPath id="SVGID_2_">
									<use xlink:href="#SVGID_1_"  style="overflow:visible;"/>
								</clipPath>
								<g class="st2">
									
										<linearGradient id="SVGID_3_" gradientUnits="userSpaceOnUse" x1="30.7333" y1="1101.03" x2="30.7333" y2="1013.8223" gradientTransform="matrix(1 0 0 1 0 -974.9449)">
										<stop  offset="0" style="stop-color:#FFFFFF;stop-opacity:0"/>
										<stop  offset="0.49" style="stop-color:#FFFFFF;stop-opacity:0.5"/>
										<stop  offset="1" style="stop-color:#FFFFFF;stop-opacity:0"/>
									</linearGradient>
									<path class="st3" d="M36.6,125c-3.9-2.3-6.8-5.2-8.7-8.7C26,112.4,25,108.6,25,104c0-8.1-0.3-16.5,0-24.9v-1.3h1.3L25,79.1
										c0-6.8,0-13.2,0.3-20s0.3-13.2,1-20c0.3,6.5,0.6,13.2,1,19.7c0.3,6.8,0.3,13.6,0.3,20v1.3H26l1.3-1.3c0,8.1,0,16.5,0,24.9
										c-0.3,4.2,0.3,8.1,1.9,11.6C30.4,119.5,33,122.4,36.6,125z"/>
								</g>
							</g>
						</g>
					</g>
				</g>
			</g>
		</g>
	</g>
	<g id="_2">
		<g>
			<g>
				<g>
					<g>
						<g>
							<g>
								<defs>
									<path id="SVGID_4_" d="M82.7,5.9C75.9,10.1,72,17.5,72,25.6v80c0,12.6-10.3,23.2-23.2,23.2h-1.6h-1h-1
										c-0.6,0-1.6-0.3-2.3-0.3l0,0l-1.6-0.3l-1-1c-1-0.6-1.9-1.3-2.9-1.9l-1-0.6l0,0c-6.8-4.2-10.7-11.6-10.3-19.7V78.2
										c0,8.1,4.5,15.8,11.3,20l4.8,2.6c2.3,1.3,5.2,0.6,6.5-1.6c0.3-0.6,0.6-1.6,0.6-2.6v-70c0-0.6,0.3-1,0.6-1.3L82.7,5.9z"/>
								</defs>
								<clipPath id="SVGID_5_">
									<use xlink:href="#SVGID_4_"  style="overflow:visible;"/>
								</clipPath>
								<g class="st4">
									<g id="border">
										
											<linearGradient id="SVGID_6_" gradientUnits="userSpaceOnUse" x1="76.9" y1="1080.6667" x2="76.9" y2="979.9576" gradientTransform="matrix(1 0 0 1 0 -974.9449)">
											<stop  offset="0" style="stop-color:#FFFFFF;stop-opacity:0"/>
											<stop  offset="0.49" style="stop-color:#FFFFFF;stop-opacity:0.5"/>
											<stop  offset="1" style="stop-color:#FFFFFF;stop-opacity:0"/>
										</linearGradient>
										<path class="st5" d="M82.7,5.9c-3.6,2.6-6.5,6.1-7.7,9.7c-1,1.9-1.6,4.2-1.6,6.1c-0.3,2.3-0.3,4.2,0,6.5
											c0.3,8.4,0,17.1,0.3,25.8s0,17.4-0.3,25.8s-0.3,17.1-1,25.8c-0.6-8.4-0.6-17.4-1-25.8c-0.3-8.4-0.3-17.4-0.3-25.8
											s0-17.1,0.3-25.8c-0.3-4.5,0.6-8.7,2.6-12.9C75.6,11,78.8,8.1,82.7,5.9z"/>
									</g>
									
										<radialGradient id="shadow_1_" cx="495.8656" cy="1108.1694" r="14.6506" gradientTransform="matrix(3.2638 0 0 3.2638 -1593.0145 -3508.2493)" gradientUnits="userSpaceOnUse">
										<stop  offset="0" style="stop-color:#00032D;stop-opacity:0.4"/>
										<stop  offset="0.48" style="stop-color:#00032D;stop-opacity:0.15"/>
										<stop  offset="1" style="stop-color:#00032D;stop-opacity:0"/>
									</radialGradient>
									<path id="shadow" class="st6" d="M82.7,5.9C75.9,10.1,72,17.5,72,25.6v80c0,12.6-10.3,23.2-23.2,23.2h-1.6h-1h-1
										c-0.6,0-1.6-0.3-2.3-0.3l0,0l-1.6-0.3l-1-1c-1-0.6-1.9-1.3-2.9-1.9l-1-0.6l0,0c-6.8-4.2-10.7-11.6-10.3-19.7V78.2
										c0,8.1,4.5,15.8,11.3,20l4.8,2.6c2.3,1.3,5.2,0.6,6.5-1.6c0.3-0.6,0.6-1.6,0.6-2.6v-70c0-0.6,0.3-1,0.6-1.3L82.7,5.9z"/>
								</g>
							</g>
						</g>
					</g>
				</g>
			</g>
		</g>
	</g>
	<g id="_3">
		<g>
			<g>
				<g>
					<g>
						<g>
							<g>
								<defs>
									<path id="SVGID_7_" d="M118.5,25.5v13.2c0,16.5-8.7,32-23.2,40L72.1,92V65.6l11.6-6.8c7.4-4.2,11.6-11.6,11.3-20v-5.5
										c0-2.6-1.9-4.8-4.5-4.8c-1,0-1.6,0.3-2.6,0.6l-16.1,9.4v-13c0-7.7,4.2-15.2,10.7-19.7L83,5.5l0.6-0.3l0.6-0.3
										c1-0.3,1.9-1,2.9-1.3l0,0l1.6-0.3l0,0C89,3.3,89.7,3,90,3c0.6-0.3,1.3-0.3,1.9-0.6h1.3h1.9
										C107.9,2.6,118.2,12.6,118.5,25.5z"/>
								</defs>
								<clipPath id="SVGID_8_">
									<use xlink:href="#SVGID_7_"  style="overflow:visible;"/>
								</clipPath>
								<g class="st7">
									<g id="shadow_top_bottom">
										
											<radialGradient id="SVGID_9_" cx="338.7901" cy="1026.0847" r="16.6616" gradientTransform="matrix(3.3647 0 0 3.3647 -1177.4026 -3436.7373)" gradientUnits="userSpaceOnUse">
											<stop  offset="0" style="stop-color:#00032D;stop-opacity:0.4"/>
											<stop  offset="0.48" style="stop-color:#00032D;stop-opacity:0.15"/>
											<stop  offset="1" style="stop-color:#00032D;stop-opacity:0"/>
										</radialGradient>
										<path class="st8" d="M118.5,25.5v13.2c0,16.5-8.7,32-23.2,40L72.1,92V65.6l11.6-6.8c7.4-4.2,11.6-11.6,11.3-20v-5.5
											c0-2.6-1.9-4.8-4.5-4.8c-1,0-1.6,0.3-2.6,0.6l-16.1,9.4v-13c0-7.7,4.2-15.2,10.7-19.7L83,5.5l0.6-0.3l0.6-0.3
											c1-0.3,1.9-1,2.9-1.3l0,0l1.6-0.3l0,0C89,3.3,89.7,3,90,3c0.6-0.3,1.3-0.3,1.9-0.6h1.3h1.9
											C107.9,2.6,118.2,12.6,118.5,25.5z"/>
										
											<radialGradient id="SVGID_10_" cx="337.2207" cy="1045.7068" r="15.5809" gradientTransform="matrix(3.3647 0 0 3.3647 -1177.4026 -3436.7373)" gradientUnits="userSpaceOnUse">
											<stop  offset="0" style="stop-color:#00032D;stop-opacity:0.4"/>
											<stop  offset="0.48" style="stop-color:#00032D;stop-opacity:0.15"/>
											<stop  offset="1" style="stop-color:#00032D;stop-opacity:0"/>
										</radialGradient>
										<path class="st9" d="M118.5,25.5v13.2c0,16.5-8.7,32-23.2,40L72.1,92V65.6l11.6-6.8c7.4-4.2,11.6-11.6,11.3-20v-5.5
											c0-2.6-1.9-4.8-4.5-4.8c-1,0-1.6,0.3-2.6,0.6l-16.1,9.4v-13c0-7.7,4.2-15.2,10.7-19.7L83,5.5l0.6-0.3l0.6-0.3
											c1-0.3,1.9-1,2.9-1.3l0,0l1.6-0.3l0,0C89,3.3,89.7,3,90,3c0.6-0.3,1.3-0.3,1.9-0.6h1.3h1.9
											C107.9,2.6,118.2,12.6,118.5,25.5z"/>
									</g>
									<g id="shadow_right">
										
											<linearGradient id="SVGID_11_" gradientUnits="userSpaceOnUse" x1="109.8517" y1="1021.3806" x2="89.868" y2="1001.2387" gradientTransform="matrix(1 0 0 1 0 -974.9449)">
											<stop  offset="0" style="stop-color:#00032D;stop-opacity:0.4"/>
											<stop  offset="0.48" style="stop-color:#00032D;stop-opacity:0.15"/>
											<stop  offset="1" style="stop-color:#00032D;stop-opacity:0"/>
										</linearGradient>
										<path class="st10" d="M118.5,25.5c0,8.1-4.2,15.5-11,20l-1.3,0.3l-22.5,13c7.1-4.2,11.3-11.6,11.3-20v-5.5
											c0-2.6-1.9-4.8-4.5-4.8c-1,0-1.6,0.3-2.6,0.6l-16.1,9.4v-13c0-7.7,4.2-15.2,10.7-19.7L83,5.5l0.6-0.3l0.6-0.3
											c1-0.3,1.9-1,2.9-1.3l0,0l1.6-0.3l0,0C89,3.3,89.7,3,90,3c0.6-0.3,1.3-0.3,1.9-0.6c0.3,0,0.6,0,1.3,0l0,0h1.9l0,0
											c1.6,0,2.9,0,4.5,0.6h0.3c0.6,0,1.6,0.3,2.3,0.6c0.3,0,0.6,0.3,1.3,0.3l1,0.3l1,0.3l1,0.6c0,0.3,0.3,0.6,0.6,0.6
											c0.3,0.3,0.6,0.3,1,0.6l0.6,0.6c5.2,3.9,8.4,9.7,9,16.1l0,0C118.2,23.9,118.5,24.9,118.5,25.5z"/>
									</g>
									<g id="_3.1">
										<g>
											<g>
												<g>
													<g>
														<g>
															<g>
																<defs>
																	<path id="SVGID_12_" d="M118.5,25.5v13.2c0,16.5-8.7,32-23.2,40L72.1,92V65.6l11.6-6.8l0,0l22.6-12.9l1-0.6
																		C114,41.4,118.5,33.6,118.5,25.5z"/>
																</defs>
																<clipPath id="SVGID_13_">
																	<use xlink:href="#SVGID_12_"  style="overflow:visible;"/>
																</clipPath>
																<g class="st11">
																	<g id="border-2">
																		
																			<linearGradient id="SVGID_14_" gradientUnits="userSpaceOnUse" x1="95.2678" y1="1041.553" x2="95.2678" y2="1000.4155" gradientTransform="matrix(1 0 0 1 0 -974.9449)">
																			<stop  offset="0" style="stop-color:#FFFFFF;stop-opacity:0"/>
																			<stop  offset="0.49" style="stop-color:#FFFFFF;stop-opacity:0.5"/>
																			<stop  offset="1" style="stop-color:#FFFFFF;stop-opacity:0"/>
																		</linearGradient>
																		<path class="st12" d="M118.5,25.5c0.3,5.8-1.3,11-4.8,15.5c-1.9,2.3-3.9,4.2-6.5,5.8l-7.1,4.2
																			c-4.8,2.6-9.4,5.5-13.9,7.7c-4.5,2.6-9.4,5.2-14.2,7.4c4.5-3.2,8.7-6.1,13.2-8.7c4.5-2.6,9-5.8,13.9-8.1l7.1-4.2
																			c2.3-1.3,4.2-2.9,6.1-4.8C115.6,35.9,117.9,30.7,118.5,25.5z"/>
																	</g>
																</g>
															</g>
														</g>
													</g>
												</g>
											</g>
										</g>
									</g>
								</g>
							</g>
						</g>
					</g>
				</g>
			</g>
		</g>
	</g>
</g>
<g>
	<path class="st13" d="M528.4,36.8h12.1v47.5h28.9v10.4h-41V36.8z"/>
	<path class="st13" d="M591.3,46.8H580V36.4h11.3V46.8z M580,51.9h11.3v42.8H580V51.9z"/>
	<path class="st13" d="M601,60.2v-8h6V40.3H618v11.9h6.9v8H618v22.6c0,1.8,0.2,2.8,0.7,3.3c0.4,0.4,1.8,0.6,4.1,0.6
		c0.3,0,0.7,0,1.1,0c0.4,0,0.8,0,1.1-0.1V95l-5.3,0.2c-5.3,0.2-8.9-0.7-10.8-2.7c-1.3-1.3-1.9-3.3-1.9-5.9V60.2H601z"/>
	<path class="st13" d="M663.3,52.7c3,1.3,5.5,3.4,7.4,6.3c1.8,2.5,2.9,5.5,3.4,8.8c0.3,2,0.4,4.8,0.4,8.5h-31.2
		c0.2,4.3,1.7,7.3,4.5,9c1.7,1.1,3.8,1.6,6.2,1.6c2.5,0,4.6-0.7,6.2-2c0.9-0.7,1.6-1.7,2.3-2.9h11.4c-0.3,2.5-1.7,5.1-4.1,7.7
		c-3.8,4.2-9.2,6.2-16.1,6.2c-5.7,0-10.7-1.8-15.1-5.3s-6.5-9.2-6.5-17.1c0-7.4,2-13.1,5.9-17.1c3.9-4,9-5.9,15.3-5.9
		C656.9,50.7,660.3,51.4,663.3,52.7z M646.5,62.4c-1.6,1.6-2.6,3.8-3,6.6h19.3c-0.2-3-1.2-5.2-3-6.8c-1.8-1.5-4-2.3-6.6-2.3
		C650.3,59.9,648.1,60.8,646.5,62.4z"/>
</g>
</svg>
